<?xml version="1.0" standalone="no"?>
<!DOCTYPE svg PUBLIC "-//W3C//DTD SVG 20010904//EN"
 "http://www.w3.org/TR/2001/REC-SVG-20010904/DTD/svg10.dtd">
<svg version="1.0" xmlns="http://www.w3.org/2000/svg"
 width="210.000000pt" height="81.000000pt" viewBox="0 0 210.000000 81.000000"
 preserveAspectRatio="xMidYMid meet">

<g transform="translate(0.000000,81.000000) scale(0.100000,-0.100000)"
fill="#000000" stroke="none">
<path d="M0 405 l0 -405 1050 0 1050 0 0 405 0 405 -1050 0 -1050 0 0 -405z
m538 78 c-2 -42 -8 -68 -15 -71 -10 -3 -13 15 -13 67 0 57 3 71 15 71 13 0 15
-12 13 -67z m-219 30 c10 -17 10 -17 11 0 0 21 22 22 59 3 42 -22 57 -44 41
-59 -10 -9 -11 -9 -6 1 10 17 2 15 -24 -8 -13 -12 -30 -18 -38 -15 -7 3 -21 1
-31 -4 -9 -5 -23 -6 -31 -1 -7 4 -19 6 -27 3 -15 -6 -18 -43 -3 -43 5 0 7 6 4
13 -3 9 8 13 41 12 32 0 44 -4 40 -12 -2 -7 0 -13 5 -13 6 0 10 7 10 15 0 8 5
15 10 15 15 0 12 -51 -5 -84 -9 -16 -13 -31 -10 -34 9 -9 35 67 35 102 0 19 5
38 10 41 6 3 10 1 10 -5 0 -6 5 -8 10 -5 7 4 9 -2 6 -17 -3 -12 -7 -38 -10
-57 -8 -43 -32 -71 -63 -71 -13 0 -23 -6 -23 -14 0 -8 -5 -18 -10 -21 -14 -9
-42 14 -33 28 4 6 -2 8 -15 5 -36 -10 -63 21 -69 77 -3 28 -10 56 -16 63 -6 8
-6 12 3 12 10 0 10 3 1 14 -9 11 -4 20 26 45 42 35 77 40 92 14z m458 -19 c31
-15 33 -18 19 -33 -12 -12 -19 -12 -28 -3 -13 13 -56 16 -83 6 -19 -8 -45 -55
-45 -82 0 -11 9 -31 21 -46 35 -44 119 -33 119 16 0 14 -8 18 -35 18 -24 0
-35 5 -35 15 0 11 12 15 50 15 l50 0 0 -50 c0 -45 -3 -51 -30 -65 -83 -43
-180 14 -180 105 0 54 65 120 118 120 13 0 40 -7 59 -16z m227 2 c47 -19 66
-51 66 -109 0 -43 -5 -54 -35 -84 -33 -33 -38 -35 -87 -31 -69 7 -108 47 -108
111 1 51 17 82 56 108 35 23 63 24 108 5z m154 -85 l35 -93 36 93 c31 79 40
95 60 97 27 4 30 15 -31 -135 -35 -86 -46 -103 -64 -103 -18 0 -29 18 -68 113
-25 61 -46 116 -46 120 0 5 10 7 22 5 17 -2 28 -22 56 -97z m372 84 c17 -9 30
-19 30 -24 0 -14 -32 -23 -44 -11 -17 17 -61 11 -90 -11 -33 -26 -37 -88 -6
-119 22 -22 70 -26 102 -9 15 8 23 8 32 -1 8 -9 5 -16 -14 -32 -38 -31 -115
-21 -152 21 -52 58 -32 157 37 187 40 18 70 17 105 -1z m262 -24 c96 -107 -27
-256 -149 -181 -21 13 -35 31 -42 57 -14 50 -14 59 4 94 38 73 134 89 187 30z
m-459 -163 c6 -19 -3 -38 -18 -38 -18 0 -28 17 -21 35 7 18 33 20 39 3z"/>
<path d="M254 465 c8 -8 22 -12 30 -9 23 9 9 24 -20 24 -23 0 -24 -2 -10 -15z"/>
<path d="M337 473 c-13 -13 -7 -22 16 -20 12 1 28 7 35 14 11 11 8 13 -16 13
-16 0 -32 -3 -35 -7z"/>
<path d="M222 453 c8 -10 16 -37 17 -61 1 -42 18 -89 28 -79 2 3 0 14 -6 25
-6 12 -11 39 -11 61 0 23 -7 46 -16 55 -21 22 -31 20 -12 -1z"/>
<path d="M315 400 c-3 -5 -1 -10 4 -10 6 0 11 5 11 10 0 6 -2 10 -4 10 -3 0
-8 -4 -11 -10z"/>
<path d="M270 365 c0 -8 9 -15 20 -15 11 0 20 7 20 15 0 8 -9 15 -20 15 -11 0
-20 -7 -20 -15z"/>
<path d="M330 364 c0 -9 7 -14 17 -12 25 5 28 28 4 28 -12 0 -21 -6 -21 -16z"/>
<path d="M280 336 c0 -2 6 -9 14 -15 10 -9 15 -8 20 4 4 10 -1 15 -14 15 -11
0 -20 -2 -20 -4z"/>
<path d="M330 324 c0 -14 3 -14 15 -4 8 7 15 14 15 16 0 2 -7 4 -15 4 -8 0
-15 -7 -15 -16z"/>
<path d="M901 444 c-46 -58 -15 -134 54 -134 47 0 75 29 75 78 0 75 -85 112
-129 56z"/>
<path d="M1662 453 c-57 -49 -26 -143 47 -143 63 0 97 60 67 118 -24 46 -76
57 -114 25z"/>
</g>
</svg>
