<?xml version="1.0" encoding="UTF-8"?>
<svg version="1.1" xmlns="http://www.w3.org/2000/svg" width="3634" height="1012">
<path d="M0 0 C1199.22 0 2398.44 0 3634 0 C3634 333.96 3634 667.92 3634 1012 C2434.78 1012 1235.56 1012 0 1012 C0 678.04 0 344.08 0 0 Z " fill="#025DC3" transform="translate(0,0)"/>
<path d="M0 0 C1.16789063 -0.01611328 2.33578125 -0.03222656 3.5390625 -0.04882812 C16.09543072 -0.05586645 27.34259744 2.978937 36.5625 11.875 C39.73129372 15.1187061 41.49544224 17.65679578 41.85546875 22.2578125 C41.84128906 23.30710938 41.82710938 24.35640625 41.8125 25.4375 C41.80605469 26.49195313 41.79960937 27.54640625 41.79296875 28.6328125 C41.625 31.3125 41.625 31.3125 40.625 33.3125 C41.19347656 33.0959375 41.76195312 32.879375 42.34765625 32.65625 C47.33339692 30.85838692 51.32455376 29.87079615 56.625 30.3125 C56.955 30.6425 57.285 30.9725 57.625 31.3125 C57.33769945 33.65194736 57.00563221 35.9864143 56.625 38.3125 C57.181875 38.35375 57.73875 38.395 58.3125 38.4375 C61.77794724 39.74875031 63.8821421 42.12206178 65.625 45.3125 C65.58375 46.405625 65.5425 47.49875 65.5 48.625 C65.69100262 54.25957735 69.01990666 57.20090595 72.625 61.3125 C73.60649897 62.49807302 74.58603178 63.6852801 75.5625 64.875 C76.243125 65.679375 76.92375 66.48375 77.625 67.3125 C78.7078125 66.5390625 78.7078125 66.5390625 79.8125 65.75 C83.14101305 64.04876 84.12998017 64.26399405 87.625 65.3125 C88.553125 65.498125 89.48125 65.68375 90.4375 65.875 C91.159375 66.019375 91.88125 66.16375 92.625 66.3125 C92.625 66.9725 92.625 67.6325 92.625 68.3125 C94.275 68.6425 95.925 68.9725 97.625 69.3125 C97.295 70.6325 96.965 71.9525 96.625 73.3125 C102.29518317 71.31125888 105.38752414 69.47222715 108.625 64.3125 C108.46829295 58.30232387 105.31788732 53.13946381 102.6875 47.875 C97.72889026 37.90868538 93.17628529 28.47488236 96.5625 17.1875 C103.18791068 7.95207906 112.55397046 2.6328275 123.625 0.3125 C139.01516713 -0.71663403 153.83157028 -0.095027 168.625 4.3125 C170.19121094 4.76302734 170.19121094 4.76302734 171.7890625 5.22265625 C174.78059983 6.15398391 177.6951985 7.20222034 180.625 8.3125 C182.47544922 8.99892578 182.47544922 8.99892578 184.36328125 9.69921875 C213.62539553 20.92323656 239.62210033 39.74545387 264.625 58.3125 C265.31094238 58.81974609 265.99688477 59.32699219 266.70361328 59.84960938 C308.06123009 90.46763393 308.06123009 90.46763393 320.375 104.75 C325.21391038 110.21973812 330.60978074 114.16510202 336.62109375 118.21875 C340.92904724 121.2214328 340.92904724 121.2214328 342.625 123.3125 C342.625 123.9725 342.625 124.6325 342.625 125.3125 C343.470625 125.51875 344.31625 125.725 345.1875 125.9375 C349.45934909 127.64623964 352.5167293 129.92849561 355.625 133.3125 C355.955 134.17875 356.285 135.045 356.625 135.9375 C357.91993218 139.01296393 359.72479248 139.54450041 362.60546875 141 C366.659024 143.63441889 369.57719021 147.60762991 372.625 151.3125 C371.965 152.6325 371.305 153.9525 370.625 155.3125 C369.3875 155.333125 368.15 155.35375 366.875 155.375 C366.17890625 155.38660156 365.4828125 155.39820313 364.765625 155.41015625 C362.58854099 155.31083672 360.72525805 154.86833752 358.625 154.3125 C350.10052621 164.65518812 341.58687766 175.00618647 333.11328125 185.390625 C332.29214844 186.39609375 331.47101562 187.4015625 330.625 188.4375 C329.8825 189.34757813 329.14 190.25765625 328.375 191.1953125 C327.49222208 192.26331615 326.60477769 193.33272231 325.625 194.3125 C322.76232433 194.38575168 319.924281 194.40488205 317.0625 194.375 C316.25619141 194.37048828 315.44988281 194.36597656 314.61914062 194.36132812 C312.62106244 194.34950518 310.62302217 194.33156914 308.625 194.3125 C308.9329248 195.58230713 309.24084961 196.85211426 309.55810547 198.16040039 C310.70480364 203.33379222 311.2479341 208.47233553 311.6953125 213.74609375 C311.78126678 214.70524185 311.86722107 215.66438995 311.95578003 216.65260315 C312.22605467 219.68460868 312.48804584 222.71726554 312.75 225.75 C312.93307078 227.81189546 313.11665968 229.87374498 313.30078125 231.93554688 C313.63340357 235.68650642 313.96523039 239.43752168 314.28955078 243.18920898 C314.35457794 243.93927719 314.4196051 244.6893454 314.48660278 245.46214294 C314.625 247.3125 314.625 247.3125 314.625 249.3125 C315.17929687 248.9515625 315.73359375 248.590625 316.3046875 248.21875 C317.02914062 247.7546875 317.75359375 247.290625 318.5 246.8125 C319.21929688 246.3484375 319.93859375 245.884375 320.6796875 245.40625 C322.625 244.3125 322.625 244.3125 324.625 244.3125 C324.81835938 243.56484375 325.01171875 242.8171875 325.2109375 242.046875 C325.60152344 240.56960938 325.60152344 240.56960938 326 239.0625 C326.25523437 238.08796875 326.51046875 237.1134375 326.7734375 236.109375 C328.67205361 229.87355327 328.67205361 229.87355327 331.45085144 228.23751831 C332.18918716 227.96819489 332.92752289 227.69887146 333.68823242 227.42138672 C334.52637985 227.10781219 335.36452728 226.79423767 336.22807312 226.47116089 C337.13636368 226.14809967 338.04465424 225.82503845 338.98046875 225.4921875 C339.91546707 225.14745392 340.85046539 224.80272034 341.813797 224.44754028 C344.80863636 223.34740157 347.81038289 222.26759881 350.8125 221.1875 C352.81621612 220.45307921 354.81947742 219.71741624 356.82226562 218.98046875 C372.51029428 213.2382032 372.51029428 213.2382032 379.625 211.3125 C376.2104014 216.12795957 372.63997125 220.43515916 368.40234375 224.54296875 C365.97089563 226.96372919 363.75153957 229.54343952 361.51171875 232.140625 C358.63871468 235.44785122 355.69879134 238.69106621 352.71484375 241.8984375 C350.61291477 244.17914064 350.61291477 244.17914064 349.31640625 246.5390625 C347.87736152 248.90758858 347.09694882 250.0001199 344.625 251.3125 C338.93484789 251.87599643 333.26954457 250.98999168 327.625 250.3125 C327.68394943 250.96446854 327.74289886 251.61643707 327.80363464 252.28816223 C329.40749434 270.51233275 329.99250352 288.61809992 329.94305801 306.90779877 C329.9373984 309.03824438 329.93458942 311.16868197 329.93197632 313.2991333 C329.89086938 336.39873922 329.26345403 359.34669407 326.625 382.3125 C326.54014343 383.05665161 326.45528687 383.80080322 326.36785889 384.56750488 C322.95398203 414.08997 317.41541892 443.19721061 307.625 471.3125 C307.18846106 472.62054654 306.75343996 473.92910113 306.3203125 475.23828125 C297.2318271 501.93941973 282.31196891 526.17425386 262.625 546.3125 C261.95210937 547.04726563 261.27921875 547.78203125 260.5859375 548.5390625 C242.18407103 568.193822 215.18195973 579.03662768 188.66796875 580.47265625 C158.70662977 581.27488069 129.61514789 570.27587572 104.625 554.3125 C103.965 553.6525 103.305 552.9925 102.625 552.3125 C108.84244898 571.79324631 117.76232146 590.03364027 127.08642578 608.17553711 C127.4523584 608.89218536 127.81829102 609.60883362 128.1953125 610.34719849 C128.88760775 611.70154482 129.58511502 613.05324352 130.28857422 614.40182495 C131.74389629 617.25130793 132.625 619.06368537 132.625 622.3125 C124.375 622.9725 116.125 623.6325 107.625 624.3125 C108.285 626.478125 108.945 628.64375 109.625 630.875 C111.14521906 635.8632188 111.93573647 640.08824312 111.625 645.3125 C110.625 647.1875 110.625 647.1875 108.625 648.3125 C102.63630052 649.46821393 96.70797018 649.42468593 90.625 649.3125 C90.78484375 650.01117187 90.9446875 650.70984375 91.109375 651.4296875 C91.65418758 654.47568513 91.82848812 657.34446006 91.875 660.4375 C91.90078125 661.47132813 91.9265625 662.50515625 91.953125 663.5703125 C91.625 666.3125 91.625 666.3125 90.3984375 668.10546875 C81.02122213 674.48775851 62.39139939 671.98387948 51.82421875 670.04296875 C49.20171182 669.17190517 47.58647465 668.26953693 45.625 666.3125 C45.19921875 664.078125 45.19921875 664.078125 45.3125 661.5625 C45.36470703 660.24378906 45.36470703 660.24378906 45.41796875 658.8984375 C45.67700833 655.66288648 46.06883037 652.51047536 46.625 649.3125 C44.6759375 649.3434375 44.6759375 649.3434375 42.6875 649.375 C39.36151646 649.36449136 36.06540168 649.27220047 32.75 649 C31.67105469 648.91298828 31.67105469 648.91298828 30.5703125 648.82421875 C27.98933319 648.14528644 27.09838831 647.55964884 25.625 645.3125 C24.90236146 637.86029006 27.47512107 631.36679025 29.625 624.3125 C21.375 623.6525 13.125 622.9925 4.625 622.3125 C5.53614247 618.66793012 6.64939411 616.08705306 8.36328125 612.78125 C8.93071045 611.67370361 9.49813965 610.56615723 10.08276367 609.42504883 C10.53647842 608.54255966 10.53647842 608.54255966 10.99935913 607.64224243 C16.47768851 596.95735272 21.5964258 586.16780325 26.3125 575.125 C26.80468018 573.97515625 27.29686035 572.8253125 27.80395508 571.640625 C30.3515135 565.59959058 32.65094783 559.56476556 34.625 553.3125 C33.83480469 553.78558594 33.04460937 554.25867188 32.23046875 554.74609375 C-0.80252458 574.11286584 -37.35623823 586.69645878 -75.62402344 576.7265625 C-90.76776134 572.33196234 -104.55633157 564.73955048 -116.375 554.3125 C-117.19226563 553.61511719 -118.00953125 552.91773438 -118.8515625 552.19921875 C-172.36206833 505.56390175 -186.47261132 426.92926044 -191.17016602 359.62182617 C-192.18141937 343.28387713 -192.57359353 326.9936606 -192.5625 310.625 C-192.5632251 309.5247348 -192.5639502 308.4244696 -192.56469727 307.29086304 C-192.56331771 288.23588313 -191.88348822 269.30701453 -190.375 250.3125 C-191.53692871 250.44197021 -192.69885742 250.57144043 -193.89599609 250.70483398 C-195.43834932 250.8449946 -196.98083805 250.98366964 -198.5234375 251.12109375 C-199.28712646 251.21015991 -200.05081543 251.29922607 -200.83764648 251.39099121 C-205.23693726 251.74951329 -206.84779293 251.6830476 -210.59570312 249.04882812 C-213.09812078 246.26587949 -215.24788936 243.38993573 -217.375 240.3125 C-218.52063233 238.96105061 -219.6854162 237.62542775 -220.875 236.3125 C-221.69484375 235.36890625 -221.69484375 235.36890625 -222.53125 234.40625 C-224.78376457 231.84830973 -227.07817092 229.3307102 -229.375 226.8125 C-241.01205584 214.03838832 -241.01205584 214.03838832 -242.375 211.3125 C-235.90100917 213.4332901 -229.48086989 215.68297281 -223.0703125 217.98828125 C-220.61006154 218.86991452 -218.14649382 219.7423473 -215.6796875 220.60546875 C-209.79291398 222.67156097 -203.99864099 224.78466706 -198.33984375 227.41796875 C-196.31159073 228.40305308 -196.31159073 228.40305308 -193.76953125 229.03515625 C-191.375 230.3125 -191.375 230.3125 -190.109375 233.140625 C-189.45668571 235.40949728 -188.81077124 237.68033018 -188.171875 239.953125 C-185.64255636 244.68185115 -181.94130251 246.68991311 -177.375 249.3125 C-177.26430176 248.03721436 -177.15360352 246.76192871 -177.03955078 245.44799805 C-176.62350261 240.67084203 -176.20066455 235.89430626 -175.77587891 231.11791992 C-175.5937164 229.05916122 -175.41334219 227.00024342 -175.23486328 224.94116211 C-174.97650199 221.96423385 -174.71149772 218.98795645 -174.4453125 216.01171875 C-174.36813995 215.1060466 -174.29096741 214.20037445 -174.2114563 213.26725769 C-173.63032559 206.86877941 -172.61644145 200.61516268 -171.375 194.3125 C-173.02435547 194.53873047 -173.02435547 194.53873047 -174.70703125 194.76953125 C-181.05471437 195.37825262 -186.29964148 195.87473438 -191.56640625 191.91015625 C-194.00519097 189.19430556 -196.07446582 186.22843994 -198.09667969 183.19433594 C-200.19412353 180.10665505 -202.54734503 177.22791348 -204.875 174.3125 C-205.77778444 173.15398911 -206.6801271 171.99513383 -207.58203125 170.8359375 C-212.01599683 165.19270858 -216.69998981 159.75612889 -221.375 154.3125 C-222.365 154.6425 -223.355 154.9725 -224.375 155.3125 C-225.93618428 155.37990865 -227.5000252 155.39764456 -229.0625 155.375 C-229.87074219 155.36597656 -230.67898437 155.35695313 -231.51171875 155.34765625 C-232.43404297 155.33025391 -232.43404297 155.33025391 -233.375 155.3125 C-234.035 153.9925 -234.695 152.6725 -235.375 151.3125 C-227.04424674 141.4170875 -227.04424674 141.4170875 -221.375 138.3125 C-220.715 138.3125 -220.055 138.3125 -219.375 138.3125 C-219.313125 137.755625 -219.25125 137.19875 -219.1875 136.625 C-217.30633462 131.27091393 -212.05525321 128.12065192 -207.375 125.3125 C-206.715 125.3125 -206.055 125.3125 -205.375 125.3125 C-205.11251465 124.705271 -204.8500293 124.09804199 -204.57958984 123.47241211 C-203.28882303 121.15797879 -202.26548553 120.23387183 -200.1015625 118.75390625 C-199.44792725 118.29250244 -198.79429199 117.83109863 -198.12084961 117.35571289 C-197.42096924 116.86707764 -196.72108887 116.37844238 -196 115.875 C-190.55020571 111.94096203 -185.74234979 107.93374598 -181.3125 102.875 C-171.88808815 92.14195504 -160.71436143 83.34346655 -149.3203125 74.78515625 C-147.055299 73.07047736 -144.80887828 71.3327687 -142.5625 69.59375 C-132.53809752 61.85569678 -122.38719812 54.42514027 -111.8671875 47.375 C-108.53709054 45.13785222 -105.30506681 42.79483989 -102.08203125 40.40625 C-96.31629324 36.1911309 -90.32406681 32.46031628 -84.1875 28.8125 C-83.09469727 28.16104004 -82.00189453 27.50958008 -80.87597656 26.83837891 C-68.44865306 19.49529383 -56.01401437 13.13605386 -42.375 8.3125 C-41.58867187 8.02761719 -40.80234375 7.74273437 -39.9921875 7.44921875 C-33.8937173 5.31803293 -27.64936227 3.82754829 -21.375 2.3125 C-19.62509766 1.78269531 -19.62509766 1.78269531 -17.83984375 1.2421875 C-11.97452306 -0.22014059 -6.00866651 -0.01647113 0 0 Z " fill="#FCFDFE" transform="translate(305.375,168.6875)"/>
<path d="M0 0 C1.18352554 -0.00101212 1.18352554 -0.00101212 2.39096069 -0.00204468 C58.39309597 0.07344987 114.15233805 16.64398299 155.3515625 55.77734375 C157.24682442 57.54681395 159.13127883 59.20621589 161.1328125 60.84375 C164.8828562 63.99092564 167.8557825 67.51429604 171 71.25 C172.14662109 72.56484375 172.14662109 72.56484375 173.31640625 73.90625 C215.3735018 122.87413589 230.7501354 190.01378977 226.48413086 253.30224609 C225.00077417 272.37397495 221.69614189 290.98826979 216 309.25 C215.74879395 310.07177734 215.49758789 310.89355469 215.23876953 311.74023438 C198.94538474 364.62139751 164.78887848 409.47567921 115.48339844 435.58251953 C88.99674598 449.18607224 60.58574858 457.08248542 31 460.25 C30.13012451 460.3442627 29.26024902 460.43852539 28.36401367 460.53564453 C19.23063088 461.41326567 10.10521525 461.49329056 0.9375 461.5 C0.10362762 461.50067474 -0.73024475 461.50134949 -1.58938599 461.50204468 C-24.56328141 461.47271012 -46.69600731 458.89663462 -69 453.25 C-69.76989258 453.05680176 -70.53978516 452.86360352 -71.33300781 452.66455078 C-102.96419925 444.53621673 -132.59463957 428.08933984 -156.30859375 405.73046875 C-158.93788527 403.24692757 -158.93788527 403.24692757 -161.65234375 401.140625 C-165.25171792 398.24196094 -168.01853304 394.76487442 -171 391.25 C-171.83917969 390.29867188 -172.67835938 389.34734375 -173.54296875 388.3671875 C-214.87340094 341.20421891 -230.33690466 275.97770418 -226.78173828 214.47412109 C-222.92087344 162.88509579 -205.66952296 112.04046299 -170.1015625 73.5390625 C-168.25478817 71.5275202 -166.50012567 69.46997802 -164.75 67.375 C-151.00921695 51.67124795 -133.77429498 39.89234954 -116 29.25 C-115.35836914 28.86569824 -114.71673828 28.48139648 -114.05566406 28.08544922 C-79.97754875 8.02915485 -39.14006207 0.03026915 0 0 Z " fill="#FDFEFE" transform="translate(3327,271.75)"/>
<path d="M0 0 C0.89557617 0.14453613 1.79115234 0.28907227 2.71386719 0.43798828 C19.61413097 3.27987621 36.42240549 7.78847962 52 15 C52.80775879 15.3619043 53.61551758 15.72380859 54.44775391 16.09667969 C72.60183882 24.25011581 89.00193407 33.85562761 104 47 C104.81339844 47.70382812 105.62679688 48.40765625 106.46484375 49.1328125 C109.01648182 51.38212378 111.5154441 53.67682764 114 56 C114.93585938 56.87011719 115.87171875 57.74023438 116.8359375 58.63671875 C129.24200089 70.44546837 139.14210704 84.40056648 148 99 C148.66386719 100.06992187 149.32773438 101.13984375 150.01171875 102.2421875 C170.03021474 135.67189594 181.00817772 177.28414795 181.203125 216.1953125 C181.21018463 217.13742081 181.21724426 218.07952911 181.22451782 219.05018616 C181.45216857 258.35148044 181.45216857 258.35148044 178 276 C177.79600586 277.07121094 177.59201172 278.14242188 177.38183594 279.24609375 C174.39528575 294.56574856 170.42216922 309.36524234 165 324 C164.61457031 325.06347656 164.22914063 326.12695312 163.83203125 327.22265625 C157.6540852 343.08012789 148.95098858 358.22601019 139 372 C138.41532959 372.81791016 138.41532959 372.81791016 137.81884766 373.65234375 C121.362153 396.47959256 100.32096692 414.95304536 76 429 C74.89914062 429.64453125 73.79828125 430.2890625 72.6640625 430.953125 C24.32931273 458.43360511 -36.88208245 463.70833221 -91 455 C-92.00063477 454.83902832 -93.00126953 454.67805664 -94.03222656 454.51220703 C-148.84986348 445.24537364 -197.53881194 416.20751111 -229.9375 370.875 C-253.11960319 337.83417856 -266.37737173 300.04298724 -271 260 C-271.0942627 259.22769043 -271.18852539 258.45538086 -271.28564453 257.65966797 C-278.14464312 193.96546104 -262.27128829 127.69721513 -221.859375 77.453125 C-217.46578812 72.08851346 -212.7887992 67.01185827 -208 62 C-207.16597656 61.12472656 -206.33195312 60.24945313 -205.47265625 59.34765625 C-190.4595815 43.9551041 -172.81484241 32.19799419 -154 22 C-153.33226562 21.63664551 -152.66453125 21.27329102 -151.9765625 20.89892578 C-130.12019996 9.25149177 -105.34765027 2.67647404 -81 -1 C-79.81978271 -1.19263428 -79.81978271 -1.19263428 -78.61572266 -1.38916016 C-53.13548596 -5.45122688 -25.35029807 -4.09679705 0 0 Z " fill="#FDFEFE" transform="translate(1883,275)"/>
<path d="M0 0 C1.10794922 1.03447266 1.10794922 1.03447266 2.23828125 2.08984375 C0.70435337 5.74449361 -1.48799655 8.03378375 -4.3046875 10.79296875 C-5.21412109 11.69144531 -6.12355469 12.58992188 -7.06054688 13.515625 C-8.02306406 14.45741306 -8.98595694 15.3988173 -9.94921875 16.33984375 C-15.54116948 21.82759664 -21.06618592 27.28705127 -26.16381836 33.24072266 C-28.82018978 36.3147268 -31.61435942 39.24350233 -34.44921875 42.15234375 C-35.00416016 42.74466797 -35.55910156 43.33699219 -36.13085938 43.94726562 C-37.7734375 45.625 -37.7734375 45.625 -40.76171875 48.08984375 C-44.61790074 47.64257786 -46.34951476 45.82998895 -49.07421875 43.15234375 C-80.53945477 14.20249724 -126.6815639 1.06754831 -168.7109375 2.16699219 C-194.6670606 3.34136103 -218.81993024 8.9478709 -241.76171875 21.08984375 C-242.36274414 21.39905762 -242.96376953 21.70827148 -243.58300781 22.02685547 C-277.92505122 39.75394599 -303.13416209 73.65885681 -314.76171875 110.08984375 C-316.76963497 117.01521869 -318.32018213 124.02788976 -319.76171875 131.08984375 C-319.92833008 131.86763184 -320.09494141 132.64541992 -320.26660156 133.44677734 C-325.29711051 157.7609039 -325.35649124 186.88254071 -319.76171875 211.08984375 C-319.59542969 211.85490234 -319.42914062 212.61996094 -319.2578125 213.40820312 C-311.18873623 249.89835914 -291.44427956 283.65164284 -259.72753906 304.40136719 C-239.48258516 317.26608752 -219.31288892 323.89131813 -195.76171875 328.08984375 C-194.67334717 328.2911792 -194.67334717 328.2911792 -193.56298828 328.49658203 C-171.64344421 332.39180718 -146.45838027 331.69325465 -124.76171875 327.08984375 C-123.95105957 326.9182373 -123.14040039 326.74663086 -122.30517578 326.56982422 C-110.83728094 324.04024126 -100.29248508 320.25233716 -89.76171875 315.08984375 C-89.07368164 314.76000488 -88.38564453 314.43016602 -87.67675781 314.09033203 C-76.94492856 308.90188449 -67.57881888 302.63667877 -58.30126953 295.16210938 C-56.76171875 294.08984375 -56.76171875 294.08984375 -53.76171875 293.08984375 C-53.76171875 263.38984375 -53.76171875 233.68984375 -53.76171875 203.08984375 C-94.35171875 203.08984375 -134.94171875 203.08984375 -176.76171875 203.08984375 C-176.76171875 181.96984375 -176.76171875 160.84984375 -176.76171875 139.08984375 C-114.06171875 139.08984375 -51.36171875 139.08984375 13.23828125 139.08984375 C13.71265625 168.64546875 14.18703125 198.20109375 14.67578125 228.65234375 C14.88517334 237.94463135 15.09456543 247.23691895 15.31030273 256.81079102 C15.41418457 268.25964355 15.41418457 268.25964355 15.43348694 273.63902283 C15.45471785 277.35629925 15.53997734 281.06583648 15.66651917 284.7809906 C16.77905256 318.92966383 16.77905256 318.92966383 6.74514276 330.25994891 C1.73266251 335.49478922 -3.91505371 339.82504627 -9.76171875 344.08984375 C-11.75539044 345.72116566 -13.71491197 347.38446178 -15.66944218 349.06214237 C-18.25783804 351.22402471 -21.00722773 353.1477077 -23.76171875 355.08984375 C-24.36967285 355.53150879 -24.97762695 355.97317383 -25.60400391 356.42822266 C-66.16282684 385.88911583 -112.9032662 398.83320573 -162.76171875 398.52734375 C-163.82277832 398.52430237 -164.88383789 398.52126099 -165.97705078 398.51812744 C-223.69997712 398.27476703 -282.53134786 383.21087901 -325.66015625 343.0390625 C-327.54099542 341.29456669 -329.46789906 339.65516807 -331.44921875 338.02734375 C-335.31154913 334.73088968 -338.50365701 330.97192941 -341.76171875 327.08984375 C-342.52484375 326.21457031 -343.28796875 325.33929687 -344.07421875 324.4375 C-355.97459399 310.58471945 -364.63318358 295.40316692 -372.76171875 279.08984375 C-373.28765625 278.03796875 -373.81359375 276.98609375 -374.35546875 275.90234375 C-401.39296596 219.05427269 -401.84854955 144.69800685 -381.69970703 85.703125 C-369.69955114 52.27010347 -352.24675311 23.70550019 -327.76171875 -1.91015625 C-327.12621094 -2.58691406 -326.49070312 -3.26367188 -325.8359375 -3.9609375 C-264.17494283 -67.97652862 -157.15213087 -79.15941377 0 0 Z " fill="#FDFEFE" transform="translate(1535.76171875,333.91015625)"/>
<path d="M0 0 C2.21291083 1.9523159 4.39226878 3.9379851 6.5625 5.9375 C7.77486328 7.02611328 7.77486328 7.02611328 9.01171875 8.13671875 C25.23211627 23.42524424 35.91688005 43.5116171 43.82763672 64.08691406 C44.54373124 65.89023516 45.33555654 67.6629005 46.12890625 69.43359375 C47.6571589 73.16885976 48.68226913 76.88765708 49.5625 80.8125 C49.72983643 81.54210937 49.89717285 82.27171875 50.06958008 83.0234375 C53.82240571 99.72967984 55.79756163 115.99749559 55.8125 133.125 C55.81350708 133.92507477 55.81451416 134.72514954 55.81555176 135.54946899 C55.80450561 148.54802641 55.10878278 161.15763676 52.5625 173.9375 C52.33771973 175.0812207 52.33771973 175.0812207 52.10839844 176.24804688 C51.1046152 181.19663429 49.9101308 186.07194755 48.5625 190.9375 C48.23894531 192.11699219 47.91539062 193.29648437 47.58203125 194.51171875 C42.27883583 211.91462356 34.05264825 228.80299692 22.5625 242.9375 C22.10262695 243.51790039 21.64275391 244.09830078 21.16894531 244.69628906 C-3.133898 275.21881739 -38.70965892 290.81626679 -76.93286133 295.2253418 C-94.92096811 297.06587114 -113.57250622 296.82153487 -131.4375 293.9375 C-133.36722656 293.628125 -133.36722656 293.628125 -135.3359375 293.3125 C-170.2499504 286.97758632 -203.20988831 267.16102661 -223.79248047 238.01904297 C-252.9052234 195.06143074 -260.70792993 143.65295785 -252.4375 92.9375 C-252.26927734 91.86072998 -252.26927734 91.86072998 -252.09765625 90.76220703 C-249.48457917 74.43450783 -244.17183117 58.5397072 -236.4375 43.9375 C-236.08204102 43.26509277 -235.72658203 42.59268555 -235.36035156 41.89990234 C-218.68108769 10.90462946 -192.62699034 -12.23454099 -159.4375 -24.0625 C-158.65503906 -24.35511719 -157.87257813 -24.64773438 -157.06640625 -24.94921875 C-105.84592254 -43.24916473 -42.0090386 -35.98497207 0 0 Z " fill="#025DC3" transform="translate(1937.4375,371.0625)"/>
<path d="M0 0 C2.5156646 2.2162733 4.96597313 4.48608416 7.40234375 6.7890625 C8.21316406 7.53542969 9.02398438 8.28179687 9.859375 9.05078125 C25.07847879 23.55087226 35.9487305 42.25545535 43.40234375 61.7890625 C43.70938232 62.52141113 44.0164209 63.25375977 44.33276367 64.00830078 C46.74558635 69.812866 48.55771886 75.54107246 49.96484375 81.6640625 C50.17463867 82.56463379 50.38443359 83.46520508 50.60058594 84.39306641 C61.494647 132.56025936 58.10468607 186.89452319 31.98828125 229.86328125 C26.53865712 238.44902009 20.19354543 246.23741522 13.40234375 253.7890625 C12.51482422 254.78486328 12.51482422 254.78486328 11.609375 255.80078125 C-14.43429171 283.38777635 -54.88572361 294.88777347 -91.6953125 296.07421875 C-117.08913352 296.54565953 -144.65398813 294.70024339 -167.59765625 282.7890625 C-168.83670287 282.20442034 -170.07775227 281.62401194 -171.3203125 281.046875 C-185.03700612 274.58474402 -196.63968794 266.27954069 -207.59765625 255.7890625 C-208.33242187 255.11746094 -209.0671875 254.44585938 -209.82421875 253.75390625 C-240.92127464 224.360046 -254.21606602 178.1237774 -255.78515625 136.5625 C-255.88393974 132.2969882 -255.78338834 128.05098284 -255.59765625 123.7890625 C-255.56188477 122.96164551 -255.52611328 122.13422852 -255.48925781 121.28173828 C-254.87761775 109.18956959 -253.15464795 97.45998436 -250.72265625 85.6015625 C-250.35599854 83.81250488 -250.35599854 83.81250488 -249.98193359 81.98730469 C-241.8144204 44.04206795 -219.73869548 10.84635844 -187.36547852 -10.6081543 C-177.69547785 -16.84461287 -167.51107034 -21.55717752 -156.59765625 -25.2109375 C-155.7365625 -25.53707031 -154.87546875 -25.86320312 -153.98828125 -26.19921875 C-104.17801648 -44.42077041 -40.37698076 -34.36597159 0 0 Z " fill="#025DC3" transform="translate(3426.59765625,371.2109375)"/>
<path d="M0 0 C0.74958984 0.17080078 1.49917969 0.34160156 2.27148438 0.51757812 C6.56413285 1.52644943 10.77886238 2.72917344 15 4 C16.18464844 4.31839844 17.36929688 4.63679688 18.58984375 4.96484375 C26.36294417 7.06636601 33.68553478 9.64806523 41 13 C41.82709473 13.37543945 42.65418945 13.75087891 43.50634766 14.13769531 C67.23155299 24.97426472 87.93868374 38.14188975 107 56 C109.31157156 58.02769435 111.65061197 60.01607233 114 62 C112.42653668 66.07193235 109.5050851 68.49756802 106.3125 71.3125 C101.10983862 75.99629559 96.1069816 80.83242908 91.1875 85.8125 C86.87173181 90.17287842 82.54411719 94.41239673 77.8515625 98.37109375 C74.04852319 101.71680555 70.54301835 105.38316877 67 109 C62.56044876 105.75620182 58.29563045 102.39653482 54.125 98.8125 C28.74861359 77.97012169 -5.72565006 64.99004185 -38.609375 64.796875 C-39.40987778 64.78986069 -40.21038055 64.78284637 -41.03514099 64.77561951 C-43.60681842 64.7581967 -46.1782657 64.75176653 -48.75 64.75 C-49.62782135 64.74932526 -50.5056427 64.74865051 -51.4100647 64.74795532 C-64.17873423 64.76357547 -76.50549833 65.14528691 -89 68 C-89.83998535 68.18224121 -90.6799707 68.36448242 -91.54541016 68.55224609 C-101.75076494 70.79326787 -111.58827793 73.36938644 -121 78 C-121.69947754 78.34160156 -122.39895508 78.68320312 -123.11962891 79.03515625 C-158.45129311 96.45373313 -185.44941749 124.45514783 -198.953125 161.9140625 C-199.29859375 162.93242187 -199.6440625 163.95078125 -200 165 C-200.34546875 165.99773437 -200.6909375 166.99546875 -201.046875 168.0234375 C-215.959351 213.56384499 -212.94923549 265.42302832 -191.45019531 308.37841797 C-174.15685226 341.71458004 -144.98868545 367.41743457 -109 379 C-78.95362107 387.89704571 -45.75128285 390.65742667 -15 384 C-14.22188965 383.83371094 -13.4437793 383.66742187 -12.64208984 383.49609375 C17.96830746 376.71471342 46.53576853 361.93052403 69 340 C74.96118297 344.93997261 80.41486302 350.28529862 85.87109375 355.7734375 C87.25458763 357.1590538 87.25458763 357.1590538 88.66603088 358.57266235 C91.09633814 361.00675431 93.52362496 363.44383597 95.95025635 365.8815918 C98.43569364 368.3773311 100.92402932 370.87017708 103.41210938 373.36328125 C108.27755096 378.2393886 113.13980198 383.11866631 118 388 C106.68306501 411.53035113 65.84996174 430.96864365 42.875 439.125 C41.88242188 439.43695312 40.88984375 439.74890625 39.8671875 440.0703125 C36.89694649 440.97947188 36.89694649 440.97947188 33.75390625 442.43359375 C12.84122296 451.56576986 -12.79523447 455.09512842 -35.5 455.203125 C-36.48540771 455.21013931 -37.47081543 455.21715363 -38.48608398 455.22438049 C-41.6574361 455.24182692 -44.82860163 455.24823479 -48 455.25 C-49.62252686 455.25101212 -49.62252686 455.25101212 -51.27783203 455.25204468 C-67.06083561 455.23637299 -82.43860197 454.87432754 -98 452 C-98.99741211 451.82307617 -99.99482422 451.64615234 -101.02246094 451.46386719 C-144.08804163 443.67412298 -183.74282299 425.76590222 -215.56787109 395.36474609 C-216.94699053 394.05051533 -218.34235213 392.75339339 -219.73828125 391.45703125 C-241.30031191 370.83112349 -258.4353625 342.47555386 -267.31274414 314.0847168 C-268.12753521 311.61313564 -269.04763218 309.18929112 -269.96484375 306.75390625 C-272.07556854 300.9843277 -273.64485893 295.16133599 -275.0625 289.1875 C-275.44764771 287.57258667 -275.44764771 287.57258667 -275.84057617 285.92504883 C-278.27529886 275.37509929 -279.89427627 264.76636408 -281 254 C-281.09498779 253.07775635 -281.18997559 252.1555127 -281.2878418 251.20532227 C-286.56131397 194.76276367 -273.91136414 133.26666736 -240 87 C-239.23171875 85.948125 -238.4634375 84.89625 -237.671875 83.8125 C-231.9313931 76.09419541 -225.64906183 68.94639512 -219 62 C-218.47954102 61.44699219 -217.95908203 60.89398438 -217.42285156 60.32421875 C-185.61612975 26.6353299 -142.20902305 7.01203016 -97 -1 C-96.15228027 -1.16226074 -95.30456055 -1.32452148 -94.43115234 -1.49169922 C-64.474749 -7.06217606 -29.67399031 -6.85514245 0 0 Z " fill="#FDFEFE" transform="translate(2949,277)"/>
<path d="M0 0 C26.4 0 52.8 0 80 0 C83.04674258 6.09348515 85.87841906 11.85278546 88.2421875 18.171875 C88.66912651 19.292453 88.66912651 19.292453 89.10469055 20.43566895 C89.71447754 22.0372258 90.32205856 23.63962408 90.92758179 25.24279785 C92.57944275 29.61420354 94.24973462 33.97857239 95.91796875 38.34375 C96.25989761 39.23958801 96.60182648 40.13542603 96.95411682 41.05841064 C100.30077626 49.81461603 103.73361439 58.53564385 107.1875 67.25 C108.43783698 70.40741873 109.68774987 73.5650052 110.9375 76.72265625 C111.42002983 77.94161339 111.42002983 77.94161339 111.91230774 79.18519592 C116.19463164 90.00989181 120.43980844 100.84917943 124.6875 111.6875 C125.10774445 112.75966766 125.52798889 113.83183533 125.96096802 114.93649292 C127.67834608 119.31806598 129.39563157 123.69967529 131.11268616 128.08137512 C134.10359292 135.71368481 137.09617981 143.34533388 140.08984375 150.9765625 C148.43796 172.25755595 156.77949397 193.54109362 165.10705566 214.83013916 C173.10708949 235.28117797 181.12434125 255.7254489 189.14428711 276.16868591 C191.78655014 282.90458473 194.4269798 289.64119936 197.06607056 296.37834167 C198.86208178 300.96318858 200.65860152 305.54783616 202.45513916 310.13247681 C203.30153885 312.2928407 204.14769969 314.4532982 204.99359131 316.61386108 C210.2731948 330.09858514 215.60163259 343.56235721 221 357 C226.03422771 345.17335548 230.70972943 333.20132025 235.4375 321.25 C236.36474578 318.90812162 237.29199188 316.56624337 238.21923828 314.22436523 C245.90846945 294.79511463 253.55315863 275.34843563 261.18725586 255.89746094 C266.2781751 242.9263425 271.37786591 229.95882353 276.5 217 C282.68866059 201.34196145 288.84632903 185.6718195 295 170 C301.44128412 153.59570368 307.88980061 137.19439242 314.36773682 120.80453491 C319.74574141 107.19595106 325.09668396 93.5768038 330.44418335 79.95620728 C333.26361013 72.77627553 336.08549822 65.59731066 338.90724182 58.41828918 C341.55976634 51.66878393 344.20837275 44.91776081 346.85351562 38.1653595 C348.42719565 34.15068893 350.00450423 30.13745147 351.58282471 26.12460327 C352.3124109 24.26734101 353.04042849 22.4094617 353.76678467 20.55093384 C354.76099817 18.00758413 355.76067543 15.466449 356.76171875 12.92578125 C357.04819778 12.1889209 357.33467682 11.45206055 357.62983704 10.69287109 C358.38645737 8.78167063 359.1912125 6.8897154 360 5 C360.55562119 3.66787476 360.55562119 3.66787476 361.12246704 2.30883789 C363 0 363 0 366.35990906 -0.60127258 C367.77075255 -0.61577104 369.18204135 -0.6024596 370.5925293 -0.56762695 C371.74898453 -0.56872215 371.74898453 -0.56872215 372.92880249 -0.56983948 C375.47798955 -0.56635501 378.02535085 -0.52745633 380.57421875 -0.48828125 C382.34112042 -0.47895611 384.10803501 -0.47183858 385.87495422 -0.46684265 C390.52612993 -0.44774918 395.17652527 -0.39862853 399.82739258 -0.34332275 C404.57297203 -0.29218068 409.31867755 -0.26933942 414.06445312 -0.24414062 C423.37664501 -0.19051175 432.68825762 -0.10517081 442 0 C441.53146558 1.59950433 441.05993989 3.19813264 440.5871582 4.79638672 C440.19377007 6.13188065 440.19377007 6.13188065 439.79243469 7.49435425 C438.83720782 10.51474216 437.59106439 13.28693867 436.1875 16.125 C433.85122294 21.03465155 431.80938114 25.96430191 429.9375 31.0625 C427.09317379 38.80391027 423.99708547 46.40851346 420.70703125 53.97265625 C417.32028031 61.78020814 414.13562878 69.65101369 411 77.5625 C407.9918629 85.14998119 404.87792826 92.60284191 401.36328125 99.96875 C399.42471867 104.27913556 397.80872498 108.69242045 396.17871094 113.12670898 C393.58583672 120.17555477 390.70260122 127.08556035 387.70703125 133.97265625 C384.32028031 141.78020814 381.13562878 149.65101369 378 157.5625 C374.9918629 165.14998119 371.87792826 172.60284191 368.36328125 179.96875 C366.42471867 184.27913556 364.80872498 188.69242045 363.17871094 193.12670898 C360.58583672 200.17555477 357.70260122 207.08556035 354.70703125 213.97265625 C351.32028031 221.78020814 348.13562878 229.65101369 345 237.5625 C341.9918629 245.14998119 338.87792826 252.60284191 335.36328125 259.96875 C333.42471867 264.27913556 331.80872498 268.69242045 330.17871094 273.12670898 C327.58583672 280.17555477 324.70260122 287.08556035 321.70703125 293.97265625 C318.32028031 301.78020814 315.13562878 309.65101369 312 317.5625 C308.9918629 325.14998119 305.87792826 332.60284191 302.36328125 339.96875 C300.42471867 344.27913556 298.80872498 348.69242045 297.17871094 353.12670898 C294.58583672 360.17555477 291.70260122 367.08556035 288.70703125 373.97265625 C285.32028031 381.78020814 282.13562878 389.65101369 279 397.5625 C275.99494113 405.14221694 272.88924407 412.59008606 269.37109375 419.9453125 C267.38790052 424.3637088 265.72692326 428.89066417 264.09082031 433.44750977 C260.42487987 443.57512013 260.42487987 443.57512013 258 446 C255.69946165 446.09443335 253.39597827 446.11742128 251.09350586 446.11352539 C250.37159561 446.11367142 249.64968536 446.11381744 248.90589905 446.1139679 C246.50885053 446.11326869 244.11187877 446.10547595 241.71484375 446.09765625 C240.05717511 446.0957921 238.39950593 446.09436818 236.74183655 446.09336853 C232.37045786 446.08954312 227.99911219 446.07971265 223.62774658 446.06866455 C219.17045539 446.05845092 214.71315889 446.05387101 210.25585938 446.04882812 C201.50389107 446.0380904 192.75194964 446.02101371 184 446 C182.58123711 442.70923306 181.16538824 439.41721966 179.75 436.125 C179.35425781 435.2071875 178.95851563 434.289375 178.55078125 433.34375 C175.00599282 425.09194742 171.66618895 416.77263091 168.46459961 408.38232422 C165.71889834 401.20469863 162.76258176 394.21880616 159.46484375 387.2734375 C157.50943281 382.90374586 155.88787809 378.43682519 154.24975586 373.94091797 C152.68414265 369.69219752 150.94555267 365.59376709 149 361.5 C146.42184246 356.07512683 144.30328874 350.57725606 142.25 344.94140625 C140.68420676 340.69256105 138.9456314 336.59393274 137 332.5 C134.42184246 327.07512683 132.30328874 321.57725606 130.25 315.94140625 C128.68420676 311.69256105 126.9456314 307.59393274 125 303.5 C122.42184246 298.07512683 120.30328874 292.57725606 118.25 286.94140625 C116.68420676 282.69256105 114.9456314 278.59393274 113 274.5 C110.42184246 269.07512683 108.30328874 263.57725606 106.25 257.94140625 C104.68420676 253.69256105 102.9456314 249.59393274 101 245.5 C98.42184246 240.07512683 96.30328874 234.57725606 94.25 228.94140625 C92.68420676 224.69256105 90.9456314 220.59393274 89 216.5 C86.73715653 211.73860021 84.80245328 206.94705906 83 202 C80.74711418 195.81968651 78.17554569 189.87731763 75.36328125 183.92578125 C73.09067468 179.048468 71.16492278 174.05159941 69.24658203 169.02636719 C65.91254583 160.29520174 62.47605536 151.72145345 58.46484375 143.2734375 C56.50943281 138.90374586 54.88787809 134.43682519 53.24975586 129.94091797 C51.68414265 125.69219752 49.94555267 121.59376709 48 117.5 C45.42184246 112.07512683 43.30328874 106.57725606 41.25 100.94140625 C39.68420676 96.69256105 37.9456314 92.59393274 36 88.5 C33.42184246 83.07512683 31.30328874 77.57725606 29.25 71.94140625 C27.68420676 67.69256105 25.9456314 63.59393274 24 59.5 C21.42184246 54.07512683 19.30328874 48.57725606 17.25 42.94140625 C15.28386985 37.60623017 12.95434748 32.50638407 10.51171875 27.37109375 C8.48178951 22.84440401 6.76730751 18.22250576 5.09179688 13.5546875 C3.98011863 10.48433805 2.78731662 7.57512901 1.32421875 4.65234375 C0 2 0 2 0 0 Z " fill="#FDFEFE" transform="translate(2083,280)"/>
<path d="M0 0 C22.11 0 44.22 0 67 0 C68 1 68 1 68.12467116 3.27393738 C68.12451518 4.29327076 68.1243592 5.31260414 68.1241985 6.36282641 C68.12644579 7.53617555 68.12869308 8.7095247 68.13100848 9.91842988 C68.12838146 11.22655309 68.12575445 12.5346763 68.12304783 13.88243961 C68.12378658 15.27694005 68.12496421 16.67144031 68.12654433 18.06594005 C68.12963382 21.93316882 68.12642139 25.80037158 68.12226619 29.66759842 C68.11884932 33.86146933 68.12119946 38.05533744 68.12284368 42.24920887 C68.12492352 49.6111146 68.1232633 56.97301227 68.11920547 64.33491707 C68.11318826 75.28192433 68.11286801 86.22892648 68.11374746 97.17593509 C68.11506364 115.58755794 68.11171133 133.99917722 68.10573006 152.41079903 C68.09982002 170.64972514 68.09596553 188.88864976 68.09487724 207.12757683 C68.0948085 208.26015341 68.09473976 209.39272999 68.09466894 210.55962707 C68.09433062 216.3110348 68.09402923 222.06244254 68.09374207 227.81385028 C68.09163972 268.58773388 68.08489698 309.36161554 68.07543945 350.13549805 C68.0662602 389.75528961 68.05917405 429.37508064 68.05493164 468.99487305 C68.05480011 470.2153852 68.05466859 471.43589735 68.05453308 472.69339473 C68.0532146 484.94989284 68.05193878 497.20639096 68.05069422 509.46288908 C68.04815777 534.43244834 68.04533652 559.40200756 68.04234314 584.37156677 C68.0421372 586.09378751 68.0421372 586.09378751 68.04192711 587.85080059 C68.03479456 647.28827541 68.0234332 706.72574933 68.0111084 766.16322327 C68.01093499 766.99962034 68.01076159 767.83601742 68.01058293 768.69775987 C68.00716816 785.13183994 68.0035662 801.56591996 68 818 C45.56 818 23.12 818 0 818 C0 548.06 0 278.12 0 0 Z " fill="#07579D" transform="translate(865,82)"/>
<path d="M0 0 C3.47785682 1.62687336 6.59472382 3.66148112 9.8125 5.75 C33.36486201 20.48195552 64.89611141 24.98939002 92.0390625 19.75 C105.40617108 16.36413609 118.2462932 11.7154385 128.43359375 2.08984375 C131.15676038 0.19517171 133.84507426 0.61368256 137 1 C142.74897208 26.74959763 145.28302018 87.43395964 133 112 C45.88 112 -41.24 112 -131 112 C-137.49369807 99.01260386 -135.42264258 75.71098303 -136.1875 61.1875 C-136.23010956 60.39815063 -136.27271912 59.60880127 -136.31661987 58.79553223 C-137.05792877 44.83545594 -137.37698266 30.90526988 -136.5625 16.9375 C-136.52318359 16.16212891 -136.48386719 15.38675781 -136.44335938 14.58789062 C-136.19163366 10.00648253 -135.71625079 5.53224241 -135 1 C-131.01468991 0.29150043 -128.98957719 0.37647331 -125.5078125 2.5703125 C-123.65040564 3.98624874 -121.79781059 5.40851188 -119.94921875 6.8359375 C-100.70296577 20.9583536 -74.3571119 23.47268335 -51.265625 20.46484375 C-47.13416507 19.8224507 -43.07171207 18.94278241 -39 18 C-37.74058594 17.73316406 -36.48117187 17.46632813 -35.18359375 17.19140625 C-22.25101606 14.15717269 -10.22827052 8.52355876 0 0 Z " fill="#035DC3" transform="translate(373,392)"/>
<path d="M0 0 C87.12 0 174.24 0 264 0 C263.33400378 8.65795083 262.53692468 16.79611919 260.875 25.25 C260.54786011 26.91893311 260.54786011 26.91893311 260.21411133 28.62158203 C255.72543106 50.76074541 249.10769969 71.78460062 239 92 C168.38 92 97.76 92 25 92 C20.44040977 82.22944951 16.28794193 72.96784277 12.9375 62.8125 C12.62208252 61.86395142 12.62208252 61.86395142 12.30029297 60.89624023 C5.93368558 41.63089587 0 20.36638235 0 0 Z " fill="#025DC3" transform="translate(242,513)"/>
<path d="M0 0 C22.11 0 44.22 0 67 0 C67 107.58 67 215.16 67 326 C44.89 326 22.78 326 0 326 C0 218.42 0 110.84 0 0 Z " fill="#FACF15" transform="translate(865,82)"/>
<path d="M0 0 C22.44 0 44.88 0 68 0 C68 80.85 68 161.7 68 245 C45.56 245 23.12 245 0 245 C0 164.15 0 83.3 0 0 Z " fill="#D11F3E" transform="translate(865,655)"/>
<path d="M0 0 C0.495 5.94 0.495 5.94 1 12 C-5.27 11.67 -11.54 11.34 -18 11 C-5.8506268 26.8759467 -5.8506268 26.8759467 12.171875 34.546875 C22.25958207 34.98974994 30.93274327 31.26435815 40 27.25 C45.92600686 24.78083047 51.68781252 24.87375625 58 25 C53.90081062 30.29153914 49.36295143 33.9991095 43.99609375 37.94335938 C40.47371192 40.60597704 37.82683926 42.85294154 36 47 C34.75927494 57.48800398 40.35199982 72.04480179 46.5390625 80.3046875 C54.43435362 89.46660287 64.23102625 89.4308035 76 91 C75.34 101.23 74.68 111.46 74 122 C68.59023403 118.39348935 63.25926356 114.80457364 58 111 C58.11995809 116.95508987 58.24427721 122.91006858 58.37231445 128.86499023 C58.41512525 130.88286993 58.456827 132.90077352 58.49731445 134.91870117 C58.74661732 147.30074364 59.15451249 159.6434335 60 172 C55.545 169.525 55.545 169.525 51 167 C52.30430988 196.54579992 54.79750785 225.5517535 61.42382812 254.46191406 C61.93827164 256.72808134 62.42139743 258.99757567 62.890625 261.2734375 C64.8398016 270.46017631 67.58675654 279.36802973 70.4375 288.3125 C70.80907227 289.48135742 71.18064453 290.65021484 71.56347656 291.85449219 C74.01844452 299.40774582 76.84017715 306.71548799 80 314 C80.32460205 314.76497803 80.6492041 315.52995605 80.98364258 316.31811523 C92.83060985 344.17242028 108.1071135 370.87812018 129 393 C126.06505962 397.09328247 123.13287934 399.43977521 118.8125 402 C117.95410522 402.5093811 117.95410522 402.5093811 117.07836914 403.02905273 C115.38989653 404.02671127 113.69504064 405.01354192 112 406 C111.10539063 406.54785156 110.21078125 407.09570312 109.2890625 407.66015625 C108.51304687 408.12292969 107.73703125 408.58570313 106.9375 409.0625 C106.26589844 409.46597656 105.59429687 409.86945313 104.90234375 410.28515625 C102.38319273 411.23177768 101.46553489 411.09115009 99 410 C43.32760341 363.39882458 24.15851559 273.46083297 17.8125 205.5 C17.51271795 202.00180329 17.24567617 198.50239161 17 195 C16.94215332 194.17757812 16.88430664 193.35515625 16.82470703 192.5078125 C15.75137645 176.35370947 15.89392634 160.18031225 16 144 C20.08105062 145.54342971 23.41572782 147.49934499 27 150 C26.83846436 149.12811035 26.67692871 148.2562207 26.51049805 147.35791016 C25.70141825 142.03601467 25.81618237 136.74904967 25.8125 131.375 C25.79880371 130.14894043 25.78510742 128.92288086 25.77099609 127.65966797 C25.7551765 121.12617538 26.06519185 114.8806105 27.08203125 108.421875 C29.34863389 96.76705706 29.34863389 96.76705706 26.65039062 85.66455078 C22.68652089 81.3045065 17.80677475 78.47334205 12.7109375 75.60693359 C7.97689237 72.80078401 3.72197715 69.36237741 -0.625 66 C-2.23958142 64.78818662 -3.85666857 63.57970266 -5.4765625 62.375 C-6.23163086 61.80628174 -6.98669922 61.23756348 -7.76464844 60.65161133 C-9.24769506 59.55584785 -10.75129257 58.48733717 -12.27441406 57.44799805 C-16.71336999 54.36114367 -19.01831521 52.22476527 -20.5 46.8125 C-20.7990625 45.78769531 -21.098125 44.76289063 -21.40625 43.70703125 C-22 41 -22 41 -22 38 C-22.59425781 37.84144531 -23.18851563 37.68289063 -23.80078125 37.51953125 C-29.40530358 35.94189744 -34.55150537 33.93416224 -39.8125 31.453125 C-43.68553602 29.68747623 -47.61707333 28.09550089 -51.5625 26.5 C-57.8609576 23.9426426 -63.99601372 21.20114256 -70 18 C-66.49929423 16.05322348 -62.91002819 15.01743587 -59.0625 13.9375 C-57.25458984 13.42509766 -57.25458984 13.42509766 -55.41015625 12.90234375 C-47.42247191 10.78876404 -47.42247191 10.78876404 -45 12 C-37.96220796 12.78197689 -31.56812929 10.37023796 -25 8 C-24.67 7.67 -24.34 7.34 -24 7 C-21.91941867 6.55659742 -19.83877321 6.11349367 -17.7578125 5.671875 C-12.38898117 4.36388776 -5.32533096 0 0 0 Z " fill="#035DC3" transform="translate(155,304)"/>
<path d="M0 0 C3.83347911 1.27782637 7.59843369 2.58240326 11.375 4 C15.88827803 5.65119928 20.32300422 6.90870098 25 8 C31.58454106 9.81642512 31.58454106 9.81642512 34.6875 11.1875 C38.15508887 12.03804067 40.24352865 11.81834695 43.75 11.375 C49.24076417 10.78525126 52.58878901 11.62262179 57.53125 13.94140625 C61.53280275 15.65726194 65.72064716 16.30801954 70 17 C68.67481566 19.65036869 67.53638865 19.77281319 64.80322266 20.84423828 C63.91204742 21.19865997 63.02087219 21.55308167 62.10269165 21.91824341 C61.13294403 22.29842621 60.16319641 22.67860901 59.1640625 23.0703125 C57.12966594 23.89188737 55.09582867 24.71484824 53.0625 25.5390625 C49.84595147 26.83608955 46.62696969 28.12422881 43.39746094 29.38867188 C40.28756746 30.61051786 37.19432534 31.86834045 34.1015625 33.1328125 C32.65301376 33.68486862 32.65301376 33.68486862 31.17520142 34.24807739 C26.26101352 36.2018137 26.26101352 36.2018137 22.7514801 39.95896912 C21.98360157 41.97164447 21.45353077 43.89699417 21 46 C18.77407244 52.78131419 15.39189868 55.61867833 9.8125 59.6875 C9.01312012 60.28908936 8.21374023 60.89067871 7.39013672 61.51049805 C4.93625311 63.35345527 2.46845782 65.17663382 0 67 C-1.44287555 68.08398449 -2.88435697 69.16982799 -4.32421875 70.2578125 C-5.00154053 70.76699219 -5.6788623 71.27617187 -6.37670898 71.80078125 C-7.70439788 72.80518561 -9.02562508 73.81819145 -10.34008789 74.83984375 C-13.37634703 77.17430241 -16.27141463 79.2163265 -19.734375 80.8671875 C-23.58370038 82.9337608 -25.64545801 84.29601695 -28 88 C-28.77366205 93.84377745 -27.66098774 99.70981384 -26.87109375 105.50390625 C-25.7242528 114.13514628 -25.75863066 122.68603656 -25.8125 131.375 C-25.81322467 132.88793931 -25.81355882 134.40087887 -25.81347656 135.91381836 C-25.85242121 146.55726364 -25.85242121 146.55726364 -27 150 C-26.37351562 149.566875 -25.74703125 149.13375 -25.1015625 148.6875 C-24.28429687 148.130625 -23.46703125 147.57375 -22.625 147 C-21.81289063 146.443125 -21.00078125 145.88625 -20.1640625 145.3125 C-18 144 -18 144 -16 144 C-15.17825559 212.07204246 -23.10796245 280.97198214 -53 343 C-53.50031738 344.05405029 -53.50031738 344.05405029 -54.01074219 345.12939453 C-65.68426615 369.6554103 -80.36371496 392.10161293 -100 411 C-105.48467804 409.67660027 -109.78018742 407.64891158 -114.5625 404.6875 C-115.19607422 404.30916016 -115.82964844 403.93082031 -116.48242188 403.54101562 C-120.64497982 401.00747109 -124.32494323 398.19939457 -128 395 C-127.41345686 391.49617652 -126.21324364 389.88999246 -123.75 387.375 C-100.38869646 361.87469021 -83.22694525 327.81309459 -73 295 C-72.50439666 293.4985416 -72.00501949 291.99831749 -71.5 290.5 C-71.28682129 289.85571045 -71.07364258 289.2114209 -70.85400391 288.54760742 C-70.21011657 286.62680573 -69.55118269 284.71103835 -68.88500977 282.79785156 C-65.87777682 274.04209849 -63.43969657 265.29873666 -61.4375 256.25 C-61.29003326 255.58935547 -61.14256653 254.92871094 -60.9906311 254.24804688 C-54.59176365 225.4421812 -51.46390132 196.49779866 -52 167 C-55.465 168.98 -55.465 168.98 -59 171 C-58.67 151.2 -58.34 131.4 -58 111 C-62.62 114.3 -67.24 117.6 -72 121 C-74.32452624 117.51321064 -74.29773734 115.93032429 -74.4140625 111.80078125 C-74.47207031 109.98803711 -74.47207031 109.98803711 -74.53125 108.13867188 C-74.5621875 106.87603516 -74.593125 105.61339844 -74.625 104.3125 C-74.68300781 102.40114258 -74.68300781 102.40114258 -74.7421875 100.45117188 C-74.83657686 97.30092708 -74.9221583 94.15069009 -75 91 C-73.58460938 90.88785156 -73.58460938 90.88785156 -72.140625 90.7734375 C-62.57709022 89.79403936 -52.92102855 88.41718164 -46.1015625 80.91015625 C-39.95764315 71.53834018 -34.82237538 57.1874339 -36 46 C-39.07912052 41.23232952 -43.13832834 38.20042462 -47.640625 34.80859375 C-51.23683276 32.05189807 -54.73719698 29.14722689 -58 26 C-58 25.67 -58 25.34 -58 25 C-47.9901397 23.94013244 -39.15386889 27.44879343 -30.05078125 31.22265625 C-21.67293512 34.63494686 -12.86646238 35.90510071 -4.25 32.4375 C5.66966686 27.20614284 11.71170812 20.0533564 18 11 C11.64780958 11.54881057 5.32126362 12.16511613 -1 13 C-0.505 6.565 -0.505 6.565 0 0 Z " fill="#025DC3" transform="translate(593,304)"/>
<path d="M0 0 C67.32 0 134.64 0 204 0 C188.13979656 47.58061031 141.08027411 86.56375309 103 116 C98.71931358 113.97011095 95.14563653 111.28000016 91.375 108.4375 C90.66150391 107.9010083 89.94800781 107.3645166 89.21289062 106.81176758 C83.52809292 102.49222163 78.22083385 97.86897438 73 93 C71.73382644 91.89049295 70.46310151 90.78615471 69.1875 89.6875 C52.98980015 75.53097371 52.98980015 75.53097371 46.78125 68.08984375 C44.56802355 65.49318552 42.21756225 63.04305801 39.875 60.5625 C26.71878908 46.37720949 15.55737479 30.22879209 6 13.4375 C5.62584961 12.78257568 5.25169922 12.12765137 4.86621094 11.45288086 C2.73812645 7.62716086 1.40754262 4.22262787 0 0 Z " fill="#025DC3" transform="translate(272,613)"/>
<path d="M0 0 C2.8125 -0.25 2.8125 -0.25 6 0 C7.5 1.8125 7.5 1.8125 9 4 C10.99145391 5.01691264 12.99187074 6.01642648 15 7 C15.639375 7.680625 16.27875 8.36125 16.9375 9.0625 C19.69200398 11.65006434 22.37805291 11.97378166 26 13 C27.33694153 13.77162157 28.64923659 14.58709429 29.9375 15.4375 C35.66214647 19.15137814 40.34349511 21.20079784 47.25 20.9375 C51.74972568 20.79389173 51.74972568 20.79389173 54.125 22.75 C54.74375 23.4925 55.3625 24.235 56 25 C60.95832694 28.25097851 65.98643091 29.61329706 71.80078125 30.5078125 C74 31 74 31 77 33 C79.51584891 33.24150773 79.51584891 33.24150773 82.1875 33.125 C83.08855469 33.10695313 83.98960937 33.08890625 84.91796875 33.0703125 C85.60503906 33.04710937 86.29210937 33.02390625 87 33 C83.70915441 37.68312642 80.67035189 40.01619434 75.10546875 41.5078125 C66.99621676 42.92204197 58.68621095 40.56207032 51 38 C49.06717522 37.82986679 47.12724427 37.73385867 45.1875 37.6875 C43.66189453 37.63142578 43.66189453 37.63142578 42.10546875 37.57421875 C36.96141658 38.27950389 34.01473463 40.86363052 30.62109375 44.6640625 C21.38354495 56.50948687 21.38354495 56.50948687 18.515625 70.78515625 C19.4439017 75.02977632 21.62641613 78.41202438 24 82 C24.55042969 82.84691406 25.10085938 83.69382812 25.66796875 84.56640625 C27.0909727 86.7262626 28.53408091 88.86912793 30 91 C14.78102991 92.03374136 -0.71683134 88.72531025 -15.11328125 83.9453125 C-36.16484305 77.05156696 -56.9391121 76.78543871 -77.35546875 85.859375 C-80.52993769 87.22856988 -83.65148238 88.16287059 -87 89 C-91.27793721 85.69817942 -95.45353042 82.2646968 -96.37792969 76.7421875 C-96.53467009 73.36624026 -96.43844651 70.05980424 -96.19335938 66.69018555 C-95.83449439 61.6274049 -96.0980419 59.32434643 -99 55 C-100.4231065 49.23158287 -99.59217774 44.78900972 -98.125 39.1875 C-97.84462891 38.0437793 -97.84462891 38.0437793 -97.55859375 36.87695312 C-96.1860119 31.37202381 -96.1860119 31.37202381 -95 29 C-85 29 -85 29 -82.625 29.8125 C-81.325625 29.9053125 -81.325625 29.9053125 -80 30 C-77.33333333 27.66666667 -77.33333333 27.66666667 -75 25 C-74.01 24.67 -73.02 24.34 -72 24 C-71.67 24.99 -71.34 25.98 -71 27 C-64.75861148 26.62551669 -62.44141384 25.0466215 -58 21 C-57.278125 20.649375 -56.55625 20.29875 -55.8125 19.9375 C-52.27814978 18.10938782 -51.14206516 15.3888099 -49.8125 11.75 C-49.544375 10.8425 -49.27625 9.935 -49 9 C-45.98600386 8.20217749 -44.03887824 7.9928591 -40.9375 8.5625 C-37.74794104 9.0375407 -36.6442076 8.72890497 -34 7 C-33.01 7.99 -33.01 7.99 -32 9 C-31.030625 8.979375 -30.06125 8.95875 -29.0625 8.9375 C-26 9 -26 9 -24.5 10.375 C-24.005 10.91125 -23.51 11.4475 -23 12 C-21.01276732 12.70381157 -19.01222047 13.3711811 -17 14 C-16.01 14.66 -15.02 15.32 -14 16 C-11.93089407 16.02749478 -11.93089407 16.02749478 -9.8125 15.625 C-7.9253125 15.315625 -7.9253125 15.315625 -6 15 C-5.67 10.38 -5.34 5.76 -5 1 C-3.68 1.66 -2.36 2.32 -1 3 C-0.67 2.01 -0.34 1.02 0 0 Z " fill="#025DC3" transform="translate(501,270)"/>
<path d="M0 0 C2.5625 0.25 2.5625 0.25 5.5625 2.25 C6.2225 1.92 6.8825 1.59 7.5625 1.25 C7.58828125 2.08144531 7.6140625 2.91289062 7.640625 3.76953125 C7.69734375 4.85621094 7.7540625 5.94289063 7.8125 7.0625 C7.85890625 8.14144531 7.9053125 9.22039062 7.953125 10.33203125 C8.30596479 13.32697447 8.30596479 13.32697447 10.4140625 15.1484375 C13.45813976 16.70921893 15.33406507 16.16238378 18.5625 15.25 C19.2225 14.59 19.8825 13.93 20.5625 13.25 C22.89260909 12.57215008 25.22609824 11.90583207 27.5625 11.25 C28.5525 10.59 29.5425 9.93 30.5625 9.25 C34.93165988 8.1297026 39.06463868 8.25 43.5625 8.25 C44.75875 8.229375 45.955 8.20875 47.1875 8.1875 C50.5625 8.25 50.5625 8.25 52.5625 9.25 C52.871875 10.343125 53.18125 11.43625 53.5 12.5625 C54.95104122 17.59846658 56.51628666 19.76406464 61 22.3125 C61.61617187 22.63863281 62.23234375 22.96476562 62.8671875 23.30078125 C64.5625 24.25 64.5625 24.25 66.625 26 C69.3070953 27.73038406 71.44308514 27.46268738 74.5625 27.25 C74.8925 28.24 75.2225 29.23 75.5625 30.25 C76.2225 30.25 76.8825 30.25 77.5625 30.25 C77.8925 29.59 78.2225 28.93 78.5625 28.25 C79.5525 28.58 80.5425 28.91 81.5625 29.25 C81.23894531 30.07628906 80.91539062 30.90257812 80.58203125 31.75390625 C79.45110101 35.63200035 79.23107454 39.18665757 79.25 43.1875 C79.23388672 43.86490234 79.21777344 44.54230469 79.20117188 45.24023438 C79.1962604 50.36289859 80.22422366 53.79532755 82.5625 58.25 C83.2225 58.58 83.8825 58.91 84.5625 59.25 C85.93577149 68.71031468 82.06182803 75.28435292 77.5625 83.25 C73.48165177 82.73865284 69.80496117 82.06304031 65.9375 80.6875 C46.2158676 75.18063428 25.53910163 81.32510342 6.58032227 86.75634766 C-4.887017 90.01171663 -15.46379939 91.63833624 -27.4375 91.25 C-27.06238281 90.693125 -26.68726563 90.13625 -26.30078125 89.5625 C-25.22710186 87.96144661 -24.16258404 86.35422554 -23.10546875 84.7421875 C-22.08626982 83.21935631 -21.03346206 81.7175469 -19.92578125 80.2578125 C-16.58823073 75.64835877 -15.60328776 71.80830177 -15.89453125 66.109375 C-17.8367448 55.88131517 -25.82304563 46.55682408 -33.25 39.625 C-40.84770424 36.34755895 -48.24622906 38.33566458 -55.9375 40.3125 C-62.54608305 41.97753471 -68.75896126 43.49748273 -75.4375 41.25 C-78.77258714 39.24308812 -81.69417025 37.01365071 -84.4375 34.25 C-84.4375 33.92 -84.4375 33.59 -84.4375 33.25 C-83.14199219 33.30671875 -81.84648437 33.3634375 -80.51171875 33.421875 C-75.35293637 33.41783602 -71.07909145 32.21261896 -66.25 30.5 C-65.48236328 30.24734375 -64.71472656 29.9946875 -63.92382812 29.734375 C-59.21789984 28.12137473 -55.45322665 26.18386422 -51.4375 23.25 C-48.10019504 21.02513003 -45.51888889 21.27526289 -41.57421875 21.35546875 C-34.93280578 21.02764763 -29.87404323 17.28992206 -24.6015625 13.59375 C-21.71960119 11.8042289 -18.68665562 11.16957235 -15.4375 10.25 C-13.38470004 8.64881603 -11.38098501 6.98223664 -9.4375 5.25 C-7.78088239 4.23343919 -6.11638441 3.22934924 -4.4375 2.25 C-2.4375 0.25 -2.4375 0.25 0 0 Z " fill="#025DC3" transform="translate(244.4375,269.75)"/>
<path d="M0 0 C8.32322943 6.34022339 13.96877049 15.3376339 15.5625 25.75 C16.35436066 39.07457836 14.69543477 49.82653231 6.5625 60.75 C-0.86306132 68.79051464 -10.00514866 73.2755946 -20.92578125 73.97265625 C-33.84951997 74.27139594 -44.6808176 71.7799569 -54.48046875 62.8984375 C-58.7206576 58.35989847 -61.33000818 53.56308169 -63.4375 47.75 C-63.79457031 46.83734375 -64.15164062 45.9246875 -64.51953125 44.984375 C-67.45072385 34.65659852 -66.20672707 22.28845414 -61.4375 12.75 C-55.06107671 2.32172292 -45.8472948 -3.97710271 -34.01171875 -6.8359375 C-21.8943809 -8.78500854 -10.31130628 -6.74557013 0 0 Z " fill="#FCFDFE" transform="translate(2597.4375,655.25)"/>
<path d="M0 0 C3.4834399 1.73452276 5.59543286 3.93801126 7 7.625 C7 10 7 10 5 13 C5.31026498 15.32698734 6.03684996 17.07586756 7.0625 19.1875 C8.83952638 24.51857913 8.69185942 29.31547271 6.5625 34.5 C5 37 5 37 4 38 C3.89337697 39.51937816 3.81505084 41.04077504 3.75 42.5625 C3.15057506 49.09997826 0.72185791 53.71952446 -4.3125 57.9375 C-7 59 -7 59 -10.875 59.1875 C-13.7012543 59.42611434 -14.7360343 59.74959999 -16.82421875 61.73046875 C-17.98778789 63.16597315 -19.1440082 64.60746406 -20.29296875 66.0546875 C-22.86279135 68.98322675 -25.27629435 69.97277086 -29 71 C-31.30883319 71.06469585 -33.58699123 70.99901543 -35.89453125 70.90625 C-38.2131962 70.85502248 -38.2131962 70.85502248 -40.75 72.5 C-46.48825454 75.14842517 -53.44050002 75.29803484 -59.41015625 73.12109375 C-66.46155623 69.00438047 -71.50462734 62.74878879 -74 55 C-75.65666105 46.70288922 -75.1005745 39.29830655 -70.875 31.875 C-67.45960494 26.80273173 -62.87112672 21.95704224 -57 20 C-51.6660846 19.62400268 -46.56179501 19.71101116 -41.375 21.0625 C-35.40274158 22.58505062 -29.87398552 21.54439619 -24 20 C-23.7525 18.9275 -23.505 17.855 -23.25 16.75 C-21.9731653 12.9194959 -21.00583023 11.55040141 -18 9 C-16.12080669 7.19910641 -14.55493166 5.43354938 -12.9375 3.375 C-9.43410577 -0.91948325 -5.24452533 -0.78315898 0 0 Z " fill="#FCFDFE" transform="translate(474,424)"/>
<path d="M0 0 C2.87305972 1.40460697 4.74510999 2.74510999 7 5 C7 5.99 7 6.98 7 8 C7.7425 8.226875 8.485 8.45375 9.25 8.6875 C12.6085043 10.29042251 14.02831528 11.85990952 16 15 C16.10546875 17.66796875 16.10546875 17.66796875 16 20 C18.72772986 20.39096459 21.45588466 20.76316706 24.1875 21.125 C25.34088867 21.29322266 25.34088867 21.29322266 26.51757812 21.46484375 C31.05583668 22.04916889 33.77498668 21.98611737 38 20 C46.14741373 19.07470375 51.76345128 20.27650439 58.625 24.6875 C65.11562528 31.00731935 67.59789296 38.01387269 68.3125 46.875 C67.94987278 56.15825682 64.68585447 62.09024898 58.44921875 68.87109375 C52.80636418 73.77596734 48.06165653 74.4648155 40.8203125 74.3046875 C37.38271729 73.93331295 35.04619794 72.58932066 32 71 C29.65561901 70.91246969 29.65561901 70.91246969 27.125 71.0625 C21.88860257 71.20402425 18.20692884 70.16897478 14 67 C13.00675661 65.82019502 12.0482733 64.61032936 11.125 63.375 C9.34281966 61.06836333 8.50513727 60.13195766 5.65234375 59.38671875 C4.79769531 59.27972656 3.94304687 59.17273438 3.0625 59.0625 C-2.04770256 58.30714578 -4.49694404 56.60048031 -7.67578125 52.5546875 C-9.75516783 48.54312755 -10.10244556 44.51623651 -10.41796875 40.05078125 C-11.11510958 36.39664037 -12.64703983 34.81705487 -15 32 C-16.47007515 26.07646189 -14.51545148 21.11641152 -11.6796875 15.9453125 C-11.45539063 15.30335938 -11.23109375 14.66140625 -11 14 C-11.66 13.01 -12.32 12.02 -13 11 C-12.92465547 6.85605079 -12.62637764 4.718492 -9.875 1.5625 C-6.24560408 -0.40999778 -4.08210558 -0.5102632 0 0 Z " fill="#FCFDFE" transform="translate(282,424)"/>
<path d="M0 0 C5.88962004 6.68551464 7.32317648 16.1717787 8.9375 24.6875 C9.15422363 25.77643555 9.37094727 26.86537109 9.59423828 27.98730469 C10.84285926 34.4504183 11.67143719 40.81865654 12.1875 47.375 C12.58672264 52.40377604 12.58672264 52.40377604 14.984375 56.76953125 C17.06216748 58.38906324 17.06216748 58.38906324 20.3125 59.625 C19.4375 64.5 19.4375 64.5 18.3125 65.625 C16.38041163 65.80330165 14.43978628 65.89293417 12.5 65.9375 C11.44167969 65.97488281 10.38335937 66.01226563 9.29296875 66.05078125 C6.3125 65.625 6.3125 65.625 3.92578125 63.85546875 C2.3125 61.625 2.3125 61.625 2.3125 57.625 C-0.3275 57.295 -2.9675 56.965 -5.6875 56.625 C-5.31625 57.800625 -4.945 58.97625 -4.5625 60.1875 C-3.68973722 67.0812212 -8.4671575 72.33180305 -12.26953125 77.66015625 C-13.06746094 78.63855469 -13.86539062 79.61695313 -14.6875 80.625 C-15.3475 80.625 -16.0075 80.625 -16.6875 80.625 C-26.48137964 69.20920398 -26.48137964 69.20920398 -26.8984375 61.95703125 C-26.37700532 59.04743968 -25.72728445 56.38917947 -24.6875 53.625 C-25.44675781 53.35945312 -26.20601563 53.09390625 -26.98828125 52.8203125 C-27.98214844 52.46710937 -28.97601563 52.11390625 -30 51.75 C-30.98613281 51.40195312 -31.97226562 51.05390625 -32.98828125 50.6953125 C-35.6875 49.625 -35.6875 49.625 -38.6875 47.625 C-38.11101925 40.27487044 -35.97703836 33.61075424 -33.6875 26.625 C-35.6675 25.965 -37.6475 25.305 -39.6875 24.625 C-40.19122376 20.30736777 -40.1262409 16.75378111 -38.6875 12.625 C-34.46391775 8.9972024 -29.74702329 6.8654185 -24.6875 4.625 C-23.62015625 4.109375 -22.5528125 3.59375 -21.453125 3.0625 C-7.23407659 -3.70115546 -7.23407659 -3.70115546 0 0 Z " fill="#FAFCFD" transform="translate(390.6875,519.375)"/>
<path d="M0 0 C2 0 2 0 3.625 1.5 C4.305625 2.2425 4.305625 2.2425 5 3 C5.6496875 2.2575 5.6496875 2.2575 6.3125 1.5 C8 0 8 0 11 0 C11.66 1.32 12.32 2.64 13 4 C15.64 4 18.28 4 21 4 C20.4740625 5.11375 20.4740625 5.11375 19.9375 6.25 C18.90660063 9.27397148 19.01388305 10.06966383 20 13 C20.66845612 14.15704654 21.35723997 15.30251164 22.0625 16.4375 C24.92238721 22.0626458 24.88479609 27.84489676 24 34 C21.66958146 40.18800498 16.96069579 45.0196521 11.0625 47.96875 C9.39544873 48.69472394 7.69968696 49.35411895 6 50 C7.485 54.95 7.485 54.95 9 60 C10.2065625 57.7725 10.2065625 57.7725 11.4375 55.5 C15.42459947 48.86425998 20.35229335 43.53587648 27.5625 40.5 C28.7690625 40.2525 28.7690625 40.2525 30 40 C29.52153175 49.88834384 25.93014352 57.8966029 19 65 C15.5173193 67.54830295 14.42565546 68 10 68 C10.00785522 68.93851807 10.00785522 68.93851807 10.01586914 69.89599609 C10.03661618 72.72232057 10.04965286 75.54862905 10.0625 78.375 C10.07087891 79.35984375 10.07925781 80.3446875 10.08789062 81.359375 C10.09272461 82.77089844 10.09272461 82.77089844 10.09765625 84.2109375 C10.10551147 85.51490479 10.10551147 85.51490479 10.11352539 86.84521484 C10 89 10 89 9 91 C6.08482708 89.92598892 4.22189824 89.22189824 2 87 C2.0234375 83.7421875 2.0234375 83.7421875 2.375 79.875 C2.48585938 78.59367187 2.59671875 77.31234375 2.7109375 75.9921875 C2.80632812 75.00476563 2.90171875 74.01734375 3 73 C2.41992188 72.90203125 1.83984375 72.8040625 1.2421875 72.703125 C-7.33531049 71.0612277 -13.05382014 67.20770753 -18 60 C-20.16087793 55.74298956 -21.45267902 51.82857618 -21 47 C-11.39919305 49.78141025 -4.02001422 56.19025182 2 64 C1.71572583 62.41532272 1.42225182 60.8322943 1.125 59.25 C0.96257812 58.36828125 0.80015625 57.4865625 0.6328125 56.578125 C0.00758634 54.03090731 -0.53268745 52.17293101 -2 50 C-4.19163414 48.6914217 -4.19163414 48.6914217 -6.75 47.6875 C-13.45084528 44.50629062 -17.23419777 40.55221197 -19.9375 33.625 C-21.51541007 28.05979623 -21.46276881 23.06692047 -18.94921875 17.796875 C-16.74577508 14.11309921 -14.32799666 10.75420413 -11 8 C-10.34 8 -9.68 8 -9 8 C-9.33 5.69 -9.66 3.38 -10 1 C-9.236875 1.309375 -8.47375 1.61875 -7.6875 1.9375 C-5.81210323 2.67893593 -3.91315348 3.36228217 -2 4 C-1.34 2.68 -0.68 1.36 0 0 Z " fill="#F5F9FC" transform="translate(370,406)"/>
<path d="M0 0 C0.495 0.99 0.495 0.99 1 2 C-26.13121049 15.87745824 -57.42027656 18.14295095 -86.74951172 9.79882812 C-90.13110305 8.59850627 -92.97740447 6.92459144 -96 5 C-71.1351575 -14.90368627 -27.77243529 -12.12542924 0 0 Z " fill="#035DC3" transform="translate(492,389)"/>
<path d="M0 0 C1.65612305 0.00676758 1.65612305 0.00676758 3.34570312 0.01367188 C6.043027 0.0253486 8.74023347 0.04172475 11.4375 0.0625 C9.74695674 5.44685763 7.89559336 10.52611696 5.3125 15.5625 C4.79429687 16.5834375 4.27609375 17.604375 3.7421875 18.65625 C2.4375 21.0625 2.4375 21.0625 1.4375 22.0625 C-14.31894171 23.7414651 -33.54066661 19.070084 -46.5625 10.0625 C-46.5625 9.4025 -46.5625 8.7425 -46.5625 8.0625 C-31.31754131 1.93340436 -16.30205171 -0.12774362 0 0 Z " fill="#035DC3" transform="translate(302.5625,380.9375)"/>
<path d="M0 0 C2.75105422 -0.10812003 5.49785087 -0.18734945 8.25 -0.25 C9.02730469 -0.28351562 9.80460937 -0.31703125 10.60546875 -0.3515625 C11.35957031 -0.36445312 12.11367188 -0.37734375 12.890625 -0.390625 C13.58188477 -0.41157227 14.27314453 -0.43251953 14.98535156 -0.45410156 C17 0 17 0 18.671875 1.98632812 C22.25112903 5.08214264 25.76995132 4.6029394 30.359375 4.609375 C31.71594208 4.63417938 31.71594208 4.63417938 33.09991455 4.65948486 C35.98334521 4.70799979 38.86624834 4.72934344 41.75 4.75 C43.70705784 4.77815678 45.66409107 4.80808379 47.62109375 4.83984375 C52.41401908 4.91375969 57.20665096 4.96331298 62 5 C60.39584159 8.7122043 58.67270172 11.94637793 56 15 C52.3622259 16.37736761 48.98054709 16.17573267 45.1328125 15.9765625 C44.09808807 15.96241302 43.06336365 15.94826355 41.99728394 15.9336853 C38.70353463 15.87785377 35.41667903 15.75245397 32.125 15.625 C29.88811935 15.57482395 27.65113165 15.52919925 25.4140625 15.48828125 C19.94006629 15.37822853 14.47120013 15.20577943 9 15 C8.01 12.03 7.02 9.06 6 6 C4.35 5.67 2.7 5.34 1 5 C0.67 3.35 0.34 1.7 0 0 Z " fill="#FCFDFE" transform="translate(343,641)"/>
<path d="M0 0 C3.5625 1.125 3.5625 1.125 5.9375 4.3125 C10.17329158 12.47100292 9.66643651 24.05213508 7.3125 32.6875 C6.04577678 36.30502584 4.96739058 39.08206565 1.5625 41.125 C-1.4375 41.3125 -1.4375 41.3125 -4.4375 40.125 C-9.31555448 34.21593716 -9.63954889 27.71152058 -9.6875 20.375 C-9.708125 19.6015625 -9.72875 18.828125 -9.75 18.03125 C-9.79070977 11.96549422 -9.00082482 6.29357931 -5.04785156 1.40722656 C-3.4375 0.125 -3.4375 0.125 0 0 Z " fill="#045EC3" transform="translate(373.4375,412.875)"/>
<path d="M0 0 C9.24 0 18.48 0 28 0 C27.67 1.65 27.34 3.3 27 5 C26.93219805 7.61715522 26.90522892 10.1979713 26.9375 12.8125 C26.958125 15.184375 26.97875 17.55625 27 20 C18.09 20 9.18 20 0 20 C-1.57924842 16.84150315 -1.14316514 13.4634872 -1.125 10 C-1.12886719 9.26265625 -1.13273437 8.5253125 -1.13671875 7.765625 C-1.1266598 2.2533196 -1.1266598 2.2533196 0 0 Z " fill="#F6F9FC" transform="translate(365,674)"/>
<path d="M0 0 C8.91 0 17.82 0 27 0 C27 4.95 27 9.9 27 15 C18.09 15 9.18 15 0 15 C-1.30459914 12.39080172 -1.1326594 10.41057385 -1.125 7.5 C-1.12757813 6.5203125 -1.13015625 5.540625 -1.1328125 4.53125 C-1 2 -1 2 0 0 Z " fill="#F4F8FC" transform="translate(365,627)"/>
<path d="M0 0 C3.3 0 6.6 0 10 0 C10.66 1.32 11.32 2.64 12 4 C23.22 4.33 34.44 4.66 46 5 C46.33 3.35 46.66 1.7 47 0 C49.31 0 51.62 0 54 0 C53.875 2.75 53.875 2.75 53 6 C48.16414114 10.18202141 44.40257804 10.58364765 38.3125 10.49609375 C37.08140503 10.4982766 37.08140503 10.4982766 35.82543945 10.50050354 C34.09745722 10.49885023 32.36945939 10.48735281 30.64160156 10.46655273 C28.00782242 10.43758603 25.37605775 10.44595758 22.7421875 10.45898438 C21.05728196 10.45274628 19.37238273 10.44435479 17.6875 10.43359375 C16.51537964 10.43799721 16.51537964 10.43799721 15.31958008 10.44248962 C10.50210355 10.36002236 7.19048828 9.62359601 3 7 C1.44986322 4.72354127 0.89849863 2.6455793 0 0 Z " fill="#F9FBFD" transform="translate(352,693)"/>
<path d="M0 0 C5.03088388 -0.14796717 9.3456309 -0.21697758 13.51171875 2.84765625 C15.45625961 4.82710808 17.27374724 6.82858177 19 9 C13.9281544 13.25380599 8.33194389 17.88935204 2 20 C-0.46752853 13.74892772 -2.00965505 6.55782174 0 0 Z " fill="#055FC3" transform="translate(388,354)"/>
<path d="M0 0 C3.76918585 2.30077386 6.52957329 4.29435993 9 8 C9 8.99 9 9.98 9 11 C4.0065703 11.78843627 4.0065703 11.78843627 1 11 C-1.17271319 8.92138069 -2.77174359 6.74761813 -4.45703125 4.26171875 C-5.83218586 2.2459858 -7.21831261 0.65327749 -9 -1 C-5.09090118 -2.30303294 -3.77097 -1.59541038 0 0 Z " fill="#0B63C5" transform="translate(356,230)"/>
<path d="M0 0 C0.969375 0.86625 1.93875 1.7325 2.9375 2.625 C7.04071114 6.1515888 11.45679558 9.07685297 16 12 C16.99 12.66 17.98 13.32 19 14 C14.16070424 15.61309859 10.51890768 13.96895263 6 12 C2.65963612 9.79678127 0.21630106 7.89216341 -1 4 C-0.70865843 2.65686599 -0.37974823 1.32086342 0 0 Z " fill="#1A6CC8" transform="translate(334,229)"/>
</svg>
